<?xml version="1.0" encoding="iso-8859-1"?>
<!-- Generator: Adobe Illustrator 24.0.1, SVG Export Plug-In . SVG Version: 6.00 Build 0)  -->
<svg version="1.1" id="Layer_1" xmlns="http://www.w3.org/2000/svg" xmlns:xlink="http://www.w3.org/1999/xlink" x="0px" y="0px"
	 width="85.039px" height="85.039px" viewBox="0 0 85.039 85.039" enable-background="new 0 0 85.039 85.039" xml:space="preserve">
<path fill="#FFD500" d="M25.018,70.866c-0.796-0.212-1.613-0.364-2.384-0.644c-4.179-1.522-6.81-5.668-6.455-10.117
	c0.347-4.362,3.653-8.093,7.985-8.912c2.965-0.56,5.676,0.096,8.075,1.956c0.113,0.087,0.226,0.173,0.438,0.336
	c0-0.306,0-0.517,0-0.727c0-9.582,0.004-19.163-0.011-28.744c-0.001-0.502,0.108-0.727,0.633-0.859
	c11.688-2.945,23.37-5.911,35.054-8.872c0.159-0.04,0.323-0.066,0.539-0.11c0,0.207,0,0.387,0,0.567
	c0,12.646,0.004,25.292-0.002,37.938c-0.002,4.496-2.551,8.135-6.716,9.635c-5.7,2.052-12.199-1.873-13.011-7.857
	c-0.722-5.319,2.413-9.987,7.62-11.209c3.012-0.707,5.779-0.033,8.255,1.824c0.132,0.099,0.26,0.205,0.391,0.306
	c0.012,0.009,0.034,0.007,0.093,0.019c0-5.382,0-10.756,0-16.186c-1.41,0.358-2.814,0.715-4.218,1.07
	c-8.218,2.082-16.435,4.17-24.657,6.233c-0.513,0.129-0.652,0.325-0.651,0.845c0.019,7.772,0.019,15.545,0.01,23.317
	c-0.004,3.88-1.677,6.842-4.99,8.861c-1.067,0.65-2.24,1.028-3.475,1.216c-0.141,0.021-0.277,0.075-0.415,0.113
	C26.421,70.866,25.72,70.866,25.018,70.866z"/>
</svg>
