<?xml version="1.0" encoding="iso-8859-1"?>
<!-- Generator: Adobe Illustrator 24.0.1, SVG Export Plug-In . SVG Version: 6.00 Build 0)  -->
<svg version="1.1" id="Layer_1" xmlns="http://www.w3.org/2000/svg" xmlns:xlink="http://www.w3.org/1999/xlink" x="0px" y="0px"
	 width="85.039px" height="85.039px" viewBox="0 0 85.039 85.039" enable-background="new 0 0 85.039 85.039" xml:space="preserve">
<g>
	<path fill="#FFD500" d="M6.921,42.523c0.291-0.35,0.536-0.755,0.879-1.042c10.299-8.596,20.606-17.183,30.916-25.766
		c2.474-2.059,5.142-2.053,7.618,0.011c3.221,2.685,6.435,5.379,9.653,8.069c0.175,0.146,0.357,0.283,0.634,0.502
		c0.017-0.321,0.038-0.537,0.039-0.754c0.002-2.456-0.002-4.913,0.003-7.369c0.003-1.406,0.462-1.857,1.883-1.859
		c2.526-0.003,5.052-0.005,7.578,0.001c1.352,0.003,1.838,0.494,1.838,1.851c0.002,5.631,0.009,11.263-0.012,16.894
		c-0.002,0.52,0.162,0.843,0.555,1.167c2.9,2.383,5.781,4.789,8.669,7.187c1.176,0.976,1.242,1.644,0.273,2.801
		c-0.714,0.853-1.423,1.709-2.144,2.557c-0.8,0.941-1.561,1.007-2.512,0.215c-9.789-8.159-19.576-16.321-29.363-24.481
		c-0.284-0.236-0.569-0.47-0.908-0.751c-1.109,0.922-2.21,1.835-3.308,2.75c-8.969,7.478-17.937,14.957-26.907,22.435
		c-1.023,0.852-1.766,0.792-2.613-0.222c-0.93-1.114-1.848-2.239-2.771-3.359C6.921,43.079,6.921,42.801,6.921,42.523z"/>
	<path fill="#FFD500" d="M48.181,70.783c0-5.612,0-11.19,0-16.822c-3.787,0-7.52,0-11.329,0c0,5.627,0,11.223,0,16.903
		c-0.322,0-0.57,0-0.818,0c-5.19,0-10.381,0.001-15.571,0c-2.275-0.001-3.387-1.101-3.387-3.353
		c-0.001-6.72,0.005-13.439-0.011-20.159c-0.001-0.537,0.16-0.883,0.581-1.229c8.072-6.633,16.13-13.284,24.192-19.93
		c0.212-0.175,0.43-0.342,0.688-0.548c0.675,0.555,1.335,1.094,1.992,1.636c7.668,6.322,15.339,12.641,22.993,18.981
		c0.24,0.199,0.431,0.611,0.432,0.924c0.024,6.882,0.023,13.763,0.015,20.645c-0.002,1.752-1.141,3.005-2.869,3.016
		c-5.538,0.036-11.076,0.013-16.613,0.01C48.411,70.857,48.346,70.825,48.181,70.783z"/>
</g>
</svg>
