<?xml version="1.0" encoding="iso-8859-1"?>
<!-- Generator: Adobe Illustrator 24.0.1, SVG Export Plug-In . SVG Version: 6.00 Build 0)  -->
<svg version="1.1" id="Layer_1" xmlns="http://www.w3.org/2000/svg" xmlns:xlink="http://www.w3.org/1999/xlink" x="0px" y="0px"
	 width="85.039px" height="85.039px" viewBox="0 0 85.039 85.039" enable-background="new 0 0 85.039 85.039" xml:space="preserve">
<g>
	<path fill="#FFD500" d="M14.092,40.108c0.183-1.127,0.328-2.262,0.556-3.379c0.861-4.231,2.631-8.05,5.216-11.432
		c2.193,0.948,4.351,1.88,6.577,2.843c-1.155,4.1-1.745,8.366-1.888,12.746c-3.518,0-6.99,0-10.461,0
		C14.092,40.626,14.092,40.367,14.092,40.108z"/>
	<path fill="#FFD500" d="M14.092,44.217c3.472,0,6.943,0,10.46,0c0.151,4.366,0.723,8.619,1.894,12.745
		c-2.192,0.946-4.351,1.878-6.638,2.866c-0.681-1.068-1.473-2.2-2.152-3.397c-1.938-3.419-3.079-7.099-3.464-11.012
		c-0.014-0.143-0.065-0.282-0.099-0.424C14.092,44.735,14.092,44.476,14.092,44.217z"/>
	<path fill="#FFD500" d="M58.688,28.105c2.127-0.919,4.273-1.847,6.454-2.79c2.742,2.627,5.746,10.602,5.787,15.524
		c-3.462,0-6.924,0-10.357,0c-0.214-2.156-0.348-4.315-0.663-6.447C59.595,32.278,59.1,30.19,58.688,28.105z"/>
	<path fill="#FFD500" d="M29.682,28.94c3.692,0.891,7.37,1.352,11.131,1.483c0,3.488,0,6.948,0,10.435c-4.293,0-8.574,0-12.914,0
		C28.02,36.826,28.562,32.88,29.682,28.94z"/>
	<path fill="#FFD500" d="M40.816,54.675c-3.752,0.133-7.446,0.594-11.129,1.484c-1.13-3.91-1.653-7.861-1.794-11.909
		c4.32,0,8.602,0,12.923,0C40.816,47.707,40.816,51.17,40.816,54.675z"/>
	<path fill="#FFD500" d="M44.206,40.837c0-3.465,0-6.9,0-10.407c3.758-0.143,7.467-0.583,11.151-1.488
		c1.122,3.91,1.651,7.848,1.791,11.895C52.842,40.837,48.549,40.837,44.206,40.837z"/>
	<path fill="#FFD500" d="M55.361,56.153c-3.671-0.881-7.363-1.35-11.135-1.474c0-3.478,0-6.927,0-10.419c4.277,0,8.571,0,12.918,0
		C57.018,48.282,56.478,52.228,55.361,56.153z"/>
	<path fill="#FFD500" d="M65.182,59.804c-2.207-0.955-4.354-1.885-6.58-2.848c1.15-4.087,1.74-8.354,1.884-12.709
		c3.492,0,6.943,0,10.461,0C70.57,50.059,68.641,55.257,65.182,59.804z"/>
	<path fill="#FFD500" d="M44.209,27.084c0-4.297,0-8.525,0-12.789c1.062,0.201,1.983,0.655,2.851,1.222
		c1.764,1.153,3.118,2.706,4.285,4.437c1.213,1.8,2.157,3.737,2.96,5.81C50.987,26.571,47.645,26.968,44.209,27.084z"/>
	<path fill="#FFD500" d="M54.319,59.333c-1.515,3.718-3.322,7.165-6.49,9.698c-1.062,0.849-2.241,1.482-3.618,1.785
		c0-4.27,0-8.498,0-12.792C47.606,58.117,50.94,58.535,54.319,59.333z"/>
	<path fill="#FFD500" d="M40.832,14.173c0,4.396,0,8.623,0,12.907c-3.407-0.104-6.743-0.519-10.189-1.337
		c0.755-1.519,1.419-3.014,2.221-4.431c1.379-2.439,3.088-4.615,5.56-6.051C39.159,14.834,39.978,14.554,40.832,14.173z"/>
	<path fill="#FFD500" d="M30.757,59.38c1.591-0.606,8.295-1.486,10.066-1.32c0,4.223,0,8.449,0,12.806
		c-0.623-0.238-1.23-0.422-1.793-0.694c-1.749-0.847-3.128-2.149-4.326-3.653C32.986,64.363,31.747,61.941,30.757,59.38z"/>
	<path fill="#FFD500" d="M57.56,60.164c1.793,0.747,3.54,1.475,5.375,2.24c-3.033,3.082-6.442,5.317-10.384,6.761
		C54.73,66.489,56.291,63.476,57.56,60.164z"/>
	<path fill="#FFD500" d="M52.556,15.943c3.929,1.432,7.326,3.661,10.371,6.743c-1.815,0.765-3.551,1.496-5.358,2.257
		C56.292,21.656,54.751,18.621,52.556,15.943z"/>
	<path fill="#FFD500" d="M32.496,69.164c-3.94-1.44-7.347-3.676-10.38-6.753c1.827-0.765,3.571-1.496,5.366-2.247
		C28.75,63.47,30.308,66.489,32.496,69.164z"/>
	<path fill="#FFD500" d="M27.392,24.901c-1.727-0.724-3.46-1.45-5.275-2.211c3.025-3.074,6.433-5.309,10.304-6.776
		c-0.922,1.425-1.922,2.816-2.754,4.3C28.839,21.689,28.18,23.259,27.392,24.901z"/>
</g>
</svg>
