<svg xmlns="http://www.w3.org/2000/svg" width="30mm" height="30mm" viewBox="0 0 85.039 85.039">
  <title>icons svg</title>
  <g>
    <g>
      <rect x="54.736" y="16.941" width="13.363" height="13.363" transform="translate(34.692 -36.51) rotate(45)" fill="#ff0049"/>
      <rect x="45.287" y="26.39" width="13.363" height="13.363" transform="translate(38.606 -27.061) rotate(45)" fill="#ff0049"/>
      <rect x="35.838" y="35.838" width="13.363" height="13.363" transform="translate(42.52 -17.612) rotate(45)" fill="#ff0049"/>
      <rect x="26.39" y="45.287" width="13.363" height="13.363" transform="translate(46.434 -8.163) rotate(45)" fill="#ff0049"/>
      <rect x="16.941" y="54.736" width="13.363" height="13.363" transform="translate(50.347 1.285) rotate(45)" fill="#ff0049"/>
    </g>
    <g>
      <rect x="16.941" y="16.941" width="13.363" height="13.363" transform="translate(-9.785 23.622) rotate(-45)" fill="#ff0049"/>
      <rect x="26.39" y="26.39" width="13.363" height="13.363" transform="translate(-13.698 33.071) rotate(-45)" fill="#ff0049"/>
      <rect x="35.838" y="35.838" width="13.363" height="13.363" transform="translate(-17.612 42.52) rotate(-45)" fill="#ff0049"/>
      <rect x="45.287" y="45.287" width="13.363" height="13.363" transform="translate(-21.526 51.969) rotate(-45)" fill="#ff0049"/>
      <rect x="54.736" y="54.736" width="13.363" height="13.363" transform="translate(-25.44 61.417) rotate(-45)" fill="#ff0049"/>
    </g>
  </g>
</svg>
