<?xml version="1.0" standalone="no"?>
<!DOCTYPE svg PUBLIC "-//W3C//DTD SVG 20010904//EN"
 "http://www.w3.org/TR/2001/REC-SVG-20010904/DTD/svg10.dtd">
<svg version="1.0" xmlns="http://www.w3.org/2000/svg"
 width="789.000000pt" height="786.000000pt" viewBox="0 0 789.000000 786.000000"
 preserveAspectRatio="xMidYMid meet">

<g transform="translate(0.000000,786.000000) scale(0.100000,-0.100000)"
fill="#000000" stroke="none">
<path d="M6928 7356 c-86 -63 -214 -160 -284 -215 -70 -56 -134 -101 -143
-101 -10 0 -21 -4 -26 -8 -6 -5 -37 -20 -70 -32 -33 -13 -71 -30 -85 -37 -14
-7 -28 -13 -32 -13 -4 0 -37 -13 -73 -30 -36 -16 -68 -30 -71 -30 -6 0 -48
-18 -129 -56 -77 -35 -109 -47 -122 -45 -6 1 -21 -11 -33 -26 -12 -16 -24 -27
-26 -25 -11 7 -293 -232 -493 -417 -58 -53 -110 -94 -115 -93 -6 2 -8 1 -5 -3
4 -3 -89 -99 -205 -212 -116 -114 -213 -212 -216 -219 -3 -7 -39 -48 -80 -89
-91 -93 -162 -168 -215 -229 -22 -26 -58 -66 -80 -89 -22 -24 -53 -60 -70 -80
-16 -21 -43 -52 -60 -70 -16 -19 -41 -48 -55 -66 -14 -18 -36 -44 -50 -59 -14
-15 -95 -115 -181 -222 -449 -562 -844 -1130 -1246 -1794 -73 -121 -133 -225
-133 -231 0 -17 249 -612 250 -596 0 28 335 626 552 986 1053 1748 2291 3201
3468 4069 185 136 196 145 190 145 -3 1 -76 -51 -162 -113z m-428 -329 c0 -2
-10 -12 -22 -23 l-23 -19 19 23 c18 21 26 27 26 19z"/>
<path d="M7730 7384 c-615 -462 -1262 -1128 -1873 -1927 -1004 -1313 -1812
-2787 -2335 -4257 -44 -124 -84 -238 -87 -253 -6 -21 -74 -84 -269 -246 -273
-228 -553 -484 -645 -590 -47 -54 -57 -62 -84 -59 -26 2 -33 9 -38 33 -83 350
-136 510 -362 1100 -438 1144 -723 1736 -1004 2082 -188 233 -414 382 -625
414 -139 21 -159 50 -81 119 26 23 95 76 152 119 141 104 163 124 61 56 -92
-62 -94 -63 -193 -68 -45 -2 -72 -9 -78 -18 -5 -8 -9 -10 -9 -6 0 8 -161 -110
-202 -147 -23 -20 -23 -38 0 -66 12 -15 31 -24 53 -25 19 -1 41 -5 49 -8 8 -4
26 -8 40 -9 14 -2 31 -7 38 -11 6 -5 16 -6 21 -3 5 4 11 1 13 -4 2 -6 13 -12
26 -13 12 0 22 -5 22 -10 0 -4 4 -5 10 -2 5 3 10 1 10 -5 0 -6 5 -8 10 -5 6 3
10 1 10 -5 0 -6 5 -8 10 -5 6 3 10 2 10 -3 0 -5 8 -12 18 -16 17 -6 53 -27 62
-37 3 -3 21 -17 41 -32 110 -82 273 -280 384 -464 81 -135 238 -444 330 -648
266 -590 620 -1529 685 -1816 l22 -95 230 -205 c230 -204 260 -228 287 -229 8
0 91 76 185 168 208 205 298 286 576 516 118 98 221 190 227 204 7 15 49 131
94 257 521 1477 1347 2981 2365 4305 608 790 1286 1479 1878 1910 75 54 110
90 88 90 -4 0 -59 -39 -122 -86z m-7420 -3719 c7 -8 8 -15 2 -15 -5 0 -15 7
-22 15 -7 8 -8 15 -2 15 5 0 15 -7 22 -15z m416 -156 c99 -64 271 -237 342
-344 59 -88 49 -79 -47 44 -82 105 -209 225 -308 291 -89 60 -90 60 -76 60 6
0 46 -23 89 -51z"/>
<path d="M5974 6855 c-10 -8 -14 -15 -8 -15 6 0 17 7 24 15 16 19 9 19 -16 0z"/>
<path d="M5930 6820 c-9 -6 -10 -10 -3 -10 6 0 15 5 18 10 8 12 4 12 -15 0z"/>
<path d="M663 4059 c-35 -22 -46 -37 -15 -20 22 13 58 40 52 41 -3 0 -20 -10
-37 -21z"/>
</g>
</svg>
